<?xml version="1.0" standalone="no"?><!DOCTYPE svg PUBLIC "-//W3C//DTD SVG 1.1//EN" "http://www.w3.org/Graphics/SVG/1.1/DTD/svg11.dtd"><svg t="1641954065388" class="icon" viewBox="0 0 1024 1024" version="1.1" xmlns="http://www.w3.org/2000/svg" p-id="8199" xmlns:xlink="http://www.w3.org/1999/xlink" width="200" height="200"><defs><style type="text/css"></style></defs><path d="M804.48 147.84c-17.44-10.88-34.88-32.704-54.496-69.792-38.176-59.584-78.976-45.792-78.976-45.792H334.944S308.8 25.728 278.272 78.048c-19.616 34.88-39.264 56.704-56.672 69.792H804.48z" fill="#C4DFFB" p-id="8200"></path><path d="M69.792 147.84C30.528 147.84 0 180.544 0 221.984v663.616c0 41.44 30.528 74.112 69.792 74.112h884.32c39.264 0 69.792-32.672 69.792-74.112V221.984c2.176-41.44-28.352-74.144-67.616-74.144H69.792z" fill="#74B3F8" p-id="8201"></path><path d="M264.48 562.496a248.448 248.448 0 0 1 248.576-248.544 248.416 248.416 0 0 1 248.512 248.544c-2.176 137.344-111.2 248.544-248.512 248.544a248.48 248.48 0 0 1-248.576-248.544z m248.576-176.416c-96.928 0-176.416 79.488-176.416 176.384 0 96.96 79.488 176.384 176.416 176.384 96.896 0 176.384-79.456 176.384-176.384 0-96.896-79.488-176.384-176.384-176.384zM821.024 322.656a47.36 47.36 0 1 1 94.72 0c0 27.456-22.464 47.36-47.36 47.36-24.928 0-47.36-19.904-47.36-47.36z" fill="#FFFFFF" p-id="8202"></path></svg>